# xmcd CD database file
#
# Track frame offsets:
#	150
#	16094
#	30556
#	43551
#	58350
#	74792
#	88437
#	103354
#	118349
#	133979
#	146412
#	158667
#	172044
#	185987
#
# Disc length: 2668 seconds
#
# Revision: 0
# Processed by: cddbd v1.5.2PL0 Copyright (c) Steve Scherf et al.
# Submitted via: CDex 1.51
#
DISCID=df0a6a0e
DTITLE=avaré e jataí  - alerta do criador 
DYEAR=1900
DGENRE=caipira
TTITLE0=alerta do criador 
TTITLE1=cabouclo de tradição 
TTITLE2=morena do mato-grosso 
TTITLE3=sentimento oculto 
TTITLE4=o filho de deus 
TTITLE5=coração 
TTITLE6=festa brasileira 
TTITLE7=herói, ou bandido 
TTITLE8=filho do mato 
TTITLE9=meu amor e eu 
TTITLE10=a garupa 
TTITLE11=sede de amor 
TTITLE12=bem bolado 
TTITLE13=estrêla protetora 
EXTD=
EXTT0=
EXTT1=
EXTT2=
EXTT3=
EXTT4=
EXTT5=
EXTT6=
EXTT7=
EXTT8=
EXTT9=
EXTT10=
EXTT11=
EXTT12=
EXTT13=
PLAYORDER=
